Coordinates
version=1
nRows=10
nColumns=40
inDegrees=yes

Units are S.I. units (second, meters, Newtons, ...)
Angles are in degrees.

endheader
time	pelvis_tilt	pelvis_list	pelvis_rotation	pelvis_tx	pelvis_ty	pelvis_tz	hip_flexion_r	hip_adduction_r	hip_rotation_r	knee_angle_r	knee_angle_r_beta	ankle_angle_r	subtalar_angle_r	mtp_angle_r	hip_flexion_l	hip_adduction_l	hip_rotation_l	knee_angle_l	knee_angle_l_beta	ankle_angle_l	subtalar_angle_l	mtp_angle_l	lumbar_extension	lumbar_bending	lumbar_rotation	arm_flex_r	arm_add_r	arm_rot_r	elbow_flex_r	pro_sup_r	wrist_flex_r	wrist_dev_r	arm_flex_l	arm_add_l	arm_rot_l	elbow_flex_l	pro_sup_l	wrist_flex_l	wrist_dev_l
     34.26500000	     -1.29424221	     -2.71428160	     -4.17184815	      1.00404869	      0.92884827	      0.46476191	     26.26358212	     -3.95164020	    -14.11137729	     18.75703424	     18.75703424	      4.05917115	      6.12590917	      7.12565459	     -1.88194414	     -2.36969999	    -16.08188483	     11.96418412	     11.96418412	     17.96778286	      0.58541941	     -9.14352029	    -10.48688780	     -1.92996767	      0.40187620	    -23.10431666	    -16.36116036	     -8.72635144	     26.46462777	     46.88190252	      0.00000000	      0.00000000	     25.27422539	    -19.08562900	     -9.60806114	     68.70219364	     47.62928000	      0.00000000	      0.00000000
     34.27707143	     -1.26427663	     -2.67920142	     -4.04340101	      1.00463949	      0.92762495	      0.46616889	     25.65822301	     -3.56902369	    -13.70478323	     19.29782831	     19.29782831	      4.18013842	      5.80026875	      6.66448340	     -2.61995501	     -2.37134571	    -15.92944276	     11.82667477	     11.82667477	     18.41462410	      0.69600905	     -9.00756351	    -10.34384384	     -1.91629621	      0.70054499	    -24.19233209	    -16.16738456	     -8.73755133	     26.40133322	     46.86611890	      0.00000000	      0.00000000	     25.12076740	    -18.66642307	     -9.51289429	     70.47934824	     47.65188167	      0.00000000	      0.00000000
     34.28914286	     -1.30916251	     -2.67623178	     -3.84533388	      1.00528146	      0.92638045	      0.46760258	     24.94997060	     -3.14528112	    -13.26158153	     19.51338328	     19.51338328	      3.59780761	      5.21285661	      4.44210815	     -3.17371004	     -2.48105837	    -15.84694956	     11.93190690	     11.93190690	     19.22910240	      1.11122084	     -7.99502518	    -10.19568895	     -1.85756799	      0.17683890	    -25.05531238	    -16.18972981	     -8.95219683	     27.59307878	     46.77943814	      0.00000000	      0.00000000	     23.60181659	    -18.94767589	     -9.97404393	     74.09627109	     47.74398235	      0.00000000	      0.00000000
     34.30121429	     -1.36993329	     -2.69764910	     -3.65638143	      1.00583644	      0.92524067	      0.46903852	     24.35779217	     -2.73961599	    -12.66627959	     19.92028012	     19.92028012	      3.60198390	      4.43739568	      3.76185398	     -3.72590726	     -2.59527846	    -15.62672559	     11.94995543	     11.94995543	     19.65467132	      1.17912219	     -7.59831486	    -10.01575895	     -1.74202347	      0.40380447	    -25.76820067	    -15.95748664	     -8.97053858	     27.64992423	     46.75970120	      0.00000000	      0.00000000	     23.11011306	    -18.47663609	     -9.92280226	     75.98800606	     47.77295738	      0.00000000	      0.00000000
     34.31328571	     -1.46269339	     -2.78725156	     -3.42910194	      1.00630520	      0.92425375	      0.47053508	     23.74844570	     -2.31198224	    -12.16856174	     20.14101170	     20.14101170	      3.20659666	      3.59969569	      1.80935301	     -4.09103551	     -2.86387455	    -15.51698820	     12.29541279	     12.29541279	     20.43189857	      1.47934513	     -6.30760269	     -9.88679640	     -1.54734356	     -0.15314040	    -25.90399678	    -15.98296147	     -9.17119618	     28.32960986	     46.71173216	      0.00000000	      0.00000000	     21.55126780	    -18.63916078	    -10.41959438	     78.92749518	     47.85839558	      0.00000000	      0.00000000
     34.32535714	     -1.59819393	     -2.91521778	     -3.22117065	      1.00654733	      0.92345935	      0.47209960	     23.29735175	     -1.89750286	    -11.63155277	     20.47659903	     20.47659903	      3.37234970	      2.72506758	      1.31007675	     -4.35470932	     -3.17438463	    -15.26053267	     12.66065277	     12.66065277	     20.70680345	      1.34187554	     -5.92985586	     -9.70707781	     -1.29514705	      0.17939455	    -26.10605929	    -15.66793988	     -9.11487754	     28.26872124	     46.69942407	      0.00000000	      0.00000000	     21.01586848	    -18.02690314	    -10.35538736	     80.28734176	     47.87790842	      0.00000000	      0.00000000
     34.33742857	     -1.80142533	     -3.09414857	     -2.99677857	      1.00660922	      0.92292152	      0.47377939	     22.91421225	     -1.44976323	    -11.11495568	     20.66933272	     20.66933272	      3.39882686	      1.66992465	      0.45814588	     -4.38478912	     -3.61345882	    -15.05436761	     13.32327461	     13.32327461	     21.11068176	      1.27759047	     -5.06714217	     -9.52700863	     -0.98476120	      0.02669579	    -25.77299577	    -15.46390628	     -9.15773352	     28.46306704	     46.68320018	      0.00000000	      0.00000000	     19.72016360	    -17.84547044	    -10.40766125	     82.27365975	     47.91523301	      0.00000000	      0.00000000
     34.34950000	     -1.98734537	     -3.33819999	     -2.78233255	      1.00640776	      0.92271617	      0.47555117	     22.55116415	     -1.02334466	    -10.85556244	     20.84736844	     20.84736844	      3.66416062	      1.01783753	     -0.09710968	     -4.25910405	     -4.17251011	    -14.84712785	     14.27135287	     14.27135287	     21.31711380	      1.03585471	     -4.57377230	     -9.42738238	     -0.60938580	      0.12568391	    -25.25452290	    -15.19649912	     -9.08378208	     28.51276412	     46.67160529	      0.00000000	      0.00000000	     18.79782660	    -17.44771948	    -10.43456560	     83.47071790	     47.93723324	      0.00000000	      0.00000000
     34.36157143	     -2.19702924	     -3.61457199	     -2.57496163	      1.00599397	      0.92282146	      0.47746998	     22.22048157	     -0.58670459	    -10.68311558	     20.94171825	     20.94171825	      3.95739533	      0.39552476	     -0.52689133	     -3.94451959	     -4.83182393	    -14.68372824	     15.48700662	     15.48700662	     21.43015373	      0.77694094	     -4.16216704	     -9.33892715	     -0.21015707	      0.19204559	    -24.43700183	    -14.93245678	     -8.96681806	     28.59385150	     46.65940667	      0.00000000	      0.00000000	     17.69838783	    -17.09487954	    -10.39174802	     84.48430642	     47.95048490	      0.00000000	      0.00000000
     34.37364286	     -2.42872704	     -3.90240694	     -2.39487242	      1.00547539	      0.92318452	      0.47965887	     21.90055614	     -0.11368241	    -10.45294625	     20.94079343	     20.94079343	      4.20338315	     -0.33285393	     -1.13242505	     -3.39006064	     -5.63518523	    -14.78466672	     17.14445696	     17.14445696	     21.77733095	      0.93600396	     -3.35942115	     -9.25785888	      0.15009181	     -0.14172274	    -22.96992274	    -14.74559352	     -8.56837580	     28.42008777	     46.63481414	      0.00000000	      0.00000000	     15.93649264	    -16.95740678	    -10.67311447	     86.11335976	     47.99904881	      0.00000000	      0.00000000
